<svg width="676" height="778" viewBox="0 0 676 778" fill="none" xmlns="http://www.w3.org/2000/svg">
<path d="M14.375 199.85L14 574.201L338 761.5L662.375 574.85V199.85L338.76 13L14.375 199.85Z" fill="url(#paint0_linear_2_2)" stroke="#50BD90" stroke-width="18"/>
<g filter="url(#filter0_d_2_2)">
<path d="M120.172 324.406C112.391 324.406 105.758 323 100.273 320.188C94.7891 317.328 90.6172 312.922 87.7578 306.969C84.8984 301.016 83.4688 293.398 83.4688 284.117C83.4688 274.508 85.0859 266.68 88.3203 260.633C91.6016 254.539 96.125 250.062 101.891 247.203C107.703 244.344 114.43 242.914 122.07 242.914C127.508 242.914 132.195 243.453 136.133 244.531C140.117 245.562 143.586 246.805 146.539 248.258L140.211 264.852C136.836 263.492 133.695 262.391 130.789 261.547C127.883 260.656 124.977 260.211 122.07 260.211C118.32 260.211 115.203 261.102 112.719 262.883C110.234 264.617 108.383 267.242 107.164 270.758C105.945 274.273 105.336 278.68 105.336 283.977C105.336 289.18 105.992 293.492 107.305 296.914C108.617 300.336 110.516 302.891 113 304.578C115.484 306.219 118.508 307.039 122.07 307.039C126.523 307.039 130.484 306.453 133.953 305.281C137.422 304.062 140.797 302.375 144.078 300.219V318.57C140.797 320.633 137.352 322.109 133.742 323C130.18 323.938 125.656 324.406 120.172 324.406ZM183.805 323H162.359V213.594H183.805V323ZM277.812 283.555C277.812 290.117 276.922 295.93 275.141 300.992C273.406 306.055 270.852 310.344 267.477 313.859C264.148 317.328 260.117 319.953 255.383 321.734C250.695 323.516 245.398 324.406 239.492 324.406C233.961 324.406 228.875 323.516 224.234 321.734C219.641 319.953 215.633 317.328 212.211 313.859C208.836 310.344 206.211 306.055 204.336 300.992C202.508 295.93 201.594 290.117 201.594 283.555C201.594 274.836 203.141 267.453 206.234 261.406C209.328 255.359 213.734 250.766 219.453 247.625C225.172 244.484 231.992 242.914 239.914 242.914C247.273 242.914 253.789 244.484 259.461 247.625C265.18 250.766 269.656 255.359 272.891 261.406C276.172 267.453 277.812 274.836 277.812 283.555ZM223.461 283.555C223.461 288.711 224.023 293.047 225.148 296.562C226.273 300.078 228.031 302.727 230.422 304.508C232.812 306.289 235.93 307.18 239.773 307.18C243.57 307.18 246.641 306.289 248.984 304.508C251.375 302.727 253.109 300.078 254.188 296.562C255.312 293.047 255.875 288.711 255.875 283.555C255.875 278.352 255.312 274.039 254.188 270.617C253.109 267.148 251.375 264.547 248.984 262.812C246.594 261.078 243.477 260.211 239.633 260.211C233.961 260.211 229.836 262.156 227.258 266.047C224.727 269.938 223.461 275.773 223.461 283.555ZM367.672 244.391V323H351.219L348.336 312.945H347.211C345.523 315.617 343.414 317.797 340.883 319.484C338.352 321.172 335.562 322.414 332.516 323.211C329.469 324.008 326.305 324.406 323.023 324.406C317.398 324.406 312.5 323.422 308.328 321.453C304.156 319.438 300.898 316.32 298.555 312.102C296.258 307.883 295.109 302.398 295.109 295.648V244.391H316.555V290.305C316.555 295.93 317.562 300.172 319.578 303.031C321.594 305.891 324.805 307.32 329.211 307.32C333.57 307.32 336.992 306.336 339.477 304.367C341.961 302.352 343.695 299.422 344.68 295.578C345.711 291.688 346.227 286.953 346.227 281.375V244.391H367.672ZM415.062 324.406C406.297 324.406 399.148 320.984 393.617 314.141C388.133 307.25 385.391 297.148 385.391 283.836C385.391 270.383 388.18 260.211 393.758 253.32C399.336 246.383 406.625 242.914 415.625 242.914C419.375 242.914 422.68 243.43 425.539 244.461C428.398 245.492 430.859 246.875 432.922 248.609C435.031 250.344 436.812 252.289 438.266 254.445H438.969C438.688 252.945 438.336 250.742 437.914 247.836C437.539 244.883 437.352 241.859 437.352 238.766V213.594H458.867V323H442.414L438.266 312.805H437.352C435.992 314.961 434.281 316.93 432.219 318.711C430.203 320.445 427.789 321.828 424.977 322.859C422.164 323.891 418.859 324.406 415.062 324.406ZM422.586 307.32C428.445 307.32 432.57 305.586 434.961 302.117C437.398 298.602 438.688 293.328 438.828 286.297V283.977C438.828 276.336 437.656 270.5 435.312 266.469C432.969 262.391 428.609 260.352 422.234 260.352C417.5 260.352 413.797 262.391 411.125 266.469C408.453 270.547 407.117 276.43 407.117 284.117C407.117 291.805 408.453 297.594 411.125 301.484C413.844 305.375 417.664 307.32 422.586 307.32ZM524.75 260.492H506.188V323H484.742V260.492H472.93V250.156L484.742 244.391V238.625C484.742 231.922 485.867 226.719 488.117 223.016C490.414 219.266 493.625 216.641 497.75 215.141C501.922 213.594 506.844 212.82 512.516 212.82C516.688 212.82 520.484 213.172 523.906 213.875C527.328 214.531 530.117 215.281 532.273 216.125L526.789 231.875C525.148 231.359 523.367 230.891 521.445 230.469C519.523 230.047 517.32 229.836 514.836 229.836C511.836 229.836 509.633 230.75 508.227 232.578C506.867 234.359 506.188 236.656 506.188 239.469V244.391H524.75V260.492ZM591.969 299.656C591.969 305 590.703 309.523 588.172 313.227C585.688 316.883 581.961 319.672 576.992 321.594C572.023 323.469 565.836 324.406 558.43 324.406C552.945 324.406 548.234 324.055 544.297 323.352C540.406 322.648 536.469 321.477 532.484 319.836V302.117C536.75 304.039 541.32 305.633 546.195 306.898C551.117 308.117 555.43 308.727 559.133 308.727C563.305 308.727 566.281 308.117 568.062 306.898C569.891 305.633 570.805 303.992 570.805 301.977C570.805 300.664 570.43 299.492 569.68 298.461C568.977 297.383 567.43 296.188 565.039 294.875C562.648 293.516 558.898 291.758 553.789 289.602C548.867 287.539 544.812 285.453 541.625 283.344C538.484 281.234 536.141 278.75 534.594 275.891C533.094 272.984 532.344 269.305 532.344 264.852C532.344 257.586 535.156 252.125 540.781 248.469C546.453 244.766 554.023 242.914 563.492 242.914C568.367 242.914 573.008 243.406 577.414 244.391C581.867 245.375 586.438 246.945 591.125 249.102L584.656 264.57C580.766 262.883 577.086 261.5 573.617 260.422C570.195 259.344 566.703 258.805 563.141 258.805C560 258.805 557.633 259.227 556.039 260.07C554.445 260.914 553.648 262.203 553.648 263.938C553.648 265.203 554.047 266.328 554.844 267.312C555.688 268.297 557.281 269.398 559.625 270.617C562.016 271.789 565.508 273.312 570.102 275.188C574.555 277.016 578.422 278.938 581.703 280.953C584.984 282.922 587.516 285.383 589.297 288.336C591.078 291.242 591.969 295.016 591.969 299.656Z" fill="black"/>
</g>
<g filter="url(#filter1_i_2_2)">
<path d="M288.974 362.325C227.223 316.992 172.333 379.941 177.947 416.713C85.0085 452.239 123.057 582.5 195.412 582.5H459.258C527.246 582.5 570.285 453.485 471.109 416.713C477.347 321.978 351.349 270.083 288.974 362.325Z" fill="#F6F6F6"/>
</g>
<path d="M288.974 362.325C227.223 316.992 172.333 379.941 177.947 416.713C85.0085 452.239 123.057 582.5 195.412 582.5H459.258C527.246 582.5 570.285 453.485 471.109 416.713C477.347 321.978 351.349 270.083 288.974 362.325Z" stroke="#3693EF" stroke-opacity="0.5" stroke-width="18"/>
<path d="M360.488 730.07L355.733 725.617C355.526 725.428 355.326 725.243 355.132 725.062C354.94 724.871 354.757 724.691 354.584 724.52C354.413 724.341 354.255 724.176 354.109 724.027C353.966 723.869 353.843 723.734 353.74 723.62L353.681 723.654C353.733 723.797 353.791 723.97 353.855 724.173C353.916 724.371 353.979 724.59 354.042 724.832C354.111 725.07 354.181 725.322 354.252 725.589C354.32 725.851 354.381 726.12 354.435 726.397L355.797 732.766L354.214 733.676L346.324 725.865L347.78 725.029L352.062 729.382C352.347 729.669 352.624 729.956 352.895 730.244C353.168 730.523 353.417 730.793 353.642 731.054C353.869 731.306 354.059 731.531 354.21 731.729L354.278 731.691C354.231 731.53 354.17 731.34 354.096 731.119C354.028 730.896 353.956 730.659 353.88 730.41C353.807 730.152 353.738 729.895 353.673 729.639C353.606 729.377 353.546 729.13 353.495 728.897L352.115 722.537L353.631 721.666L358.367 726.086C358.607 726.308 358.851 726.543 359.099 726.791C359.352 727.036 359.592 727.277 359.819 727.515C360.043 727.747 360.23 727.962 360.382 728.161L360.449 728.122C360.362 727.917 360.268 727.655 360.168 727.337C360.067 727.019 359.96 726.668 359.844 726.284C359.734 725.897 359.624 725.502 359.513 725.101L357.924 719.199L359.355 718.377L362.122 729.131L360.488 730.07ZM373.934 722.344L369.178 717.891C368.972 717.701 368.772 717.516 368.577 717.335C368.386 717.145 368.203 716.964 368.03 716.793C367.859 716.614 367.701 716.449 367.555 716.3C367.412 716.142 367.289 716.007 367.186 715.893L367.126 715.927C367.178 716.07 367.237 716.243 367.301 716.446C367.362 716.644 367.424 716.864 367.488 717.105C367.557 717.343 367.627 717.596 367.698 717.863C367.766 718.124 367.827 718.393 367.881 718.67L369.243 725.039L367.66 725.949L359.77 718.139L361.226 717.302L365.508 721.656C365.793 721.942 366.07 722.23 366.341 722.517C366.613 722.796 366.862 723.066 367.088 723.327C367.315 723.579 367.505 723.804 367.656 724.003L367.724 723.964C367.677 723.803 367.616 723.613 367.542 723.392C367.474 723.169 367.402 722.933 367.326 722.683C367.253 722.425 367.184 722.168 367.119 721.912C367.052 721.651 366.992 721.403 366.941 721.17L365.561 714.811L367.077 713.94L371.813 718.359C372.053 718.581 372.297 718.816 372.545 719.065C372.798 719.309 373.038 719.551 373.265 719.788C373.488 720.02 373.676 720.236 373.827 720.434L373.895 720.395C373.807 720.19 373.713 719.929 373.613 719.611C373.513 719.293 373.405 718.942 373.29 718.558C373.18 718.17 373.069 717.776 372.959 717.374L371.37 711.473L372.801 710.65L375.568 721.405L373.934 722.344ZM387.38 714.617L382.624 710.164C382.418 709.974 382.217 709.789 382.023 709.608C381.831 709.418 381.649 709.237 381.476 709.067C381.305 708.887 381.146 708.723 381.001 708.574C380.857 708.416 380.734 708.28 380.632 708.166L380.572 708.2C380.624 708.343 380.682 708.516 380.747 708.72C380.808 708.917 380.87 709.137 380.934 709.378C381.003 709.616 381.073 709.869 381.144 710.136C381.212 710.397 381.272 710.666 381.326 710.943L382.689 717.313L381.105 718.222L373.215 710.412L374.672 709.575L378.953 713.929C379.238 714.216 379.516 714.503 379.786 714.79C380.059 715.069 380.308 715.339 380.533 715.6C380.761 715.852 380.95 716.078 381.102 716.276L381.17 716.237C381.122 716.076 381.062 715.886 380.988 715.666C380.919 715.442 380.847 715.206 380.772 714.956C380.698 714.698 380.629 714.441 380.565 714.185C380.497 713.924 380.438 713.677 380.386 713.443L379.007 707.084L380.523 706.213L385.259 710.632C385.499 710.854 385.743 711.09 385.991 711.338C386.244 711.583 386.484 711.824 386.711 712.062C386.934 712.294 387.122 712.509 387.273 712.707L387.341 712.668C387.253 712.463 387.159 712.202 387.059 711.884C386.959 711.566 386.851 711.215 386.736 710.831C386.626 710.443 386.515 710.049 386.404 709.647L384.815 703.746L386.246 702.924L389.014 713.678L387.38 714.617ZM392.565 710.488C392.338 710.093 392.273 709.759 392.371 709.485C392.465 709.205 392.651 708.986 392.928 708.827C393.216 708.661 393.507 708.607 393.802 708.662C394.093 708.713 394.353 708.935 394.58 709.33C394.804 709.72 394.869 710.062 394.775 710.356C394.678 710.644 394.485 710.871 394.198 711.037C393.921 711.196 393.636 711.243 393.344 711.178C393.048 711.108 392.788 710.878 392.565 710.488ZM402.823 711.306C401.603 712.007 400.532 712.319 399.609 712.241C398.689 712.169 397.994 711.724 397.523 710.905C397.189 710.324 397.087 709.722 397.217 709.099C397.353 708.472 397.71 707.904 398.286 707.392C397.979 707.418 397.673 707.369 397.368 707.244C397.069 707.115 396.835 706.904 396.666 706.611C396.472 706.272 396.395 705.922 396.435 705.561C396.478 705.191 396.625 704.776 396.879 704.315C396.28 704.396 395.693 704.29 395.119 703.997C394.548 703.695 394.082 703.23 393.722 702.604C393.339 701.938 393.151 701.291 393.158 700.663C393.163 700.03 393.356 699.439 393.738 698.889C394.12 698.339 394.684 697.85 395.429 697.421C395.593 697.327 395.761 697.242 395.935 697.165C396.111 697.079 396.283 697.006 396.451 696.946C396.617 696.881 396.766 696.833 396.898 696.802L400.082 694.973L400.602 695.879L399.014 697.074C399.309 697.196 399.603 697.381 399.894 697.626C400.186 697.872 400.44 698.184 400.657 698.562C401.189 699.488 401.299 700.404 400.987 701.312C400.672 702.214 399.967 702.979 398.872 703.609C398.612 703.758 398.334 703.888 398.037 703.998C397.848 704.31 397.734 704.601 397.694 704.871C397.66 705.139 397.713 705.394 397.852 705.636C397.956 705.817 398.092 705.93 398.261 705.976C398.436 706.018 398.642 706.005 398.88 705.936C399.115 705.861 399.379 705.739 399.673 705.57L401.307 704.631C402.317 704.051 403.212 703.818 403.992 703.933C404.777 704.045 405.403 704.507 405.87 705.32C406.46 706.348 406.495 707.375 405.975 708.403C405.454 709.43 404.403 710.398 402.823 711.306ZM402.232 710.181C403 709.74 403.59 709.296 404.001 708.85C404.422 708.405 404.672 707.965 404.751 707.529C404.84 707.095 404.769 706.677 404.539 706.277C404.325 705.904 404.078 705.671 403.798 705.576C403.522 705.487 403.202 705.506 402.839 705.632C402.473 705.752 402.052 705.948 401.578 706.221L399.97 707.145C399.552 707.385 399.225 707.66 398.989 707.968C398.753 708.276 398.624 708.606 398.6 708.957C398.583 709.305 398.682 709.668 398.9 710.047C399.188 710.549 399.619 710.808 400.192 710.825C400.768 710.847 401.448 710.632 402.232 710.181ZM398.334 702.555C399.006 702.169 399.414 701.709 399.558 701.176C399.702 700.643 399.587 700.051 399.214 699.402C398.815 698.708 398.345 698.288 397.802 698.141C397.257 697.989 396.648 698.106 395.977 698.492C395.333 698.862 394.94 699.328 394.798 699.89C394.658 700.444 394.786 701.065 395.182 701.754C395.545 702.386 395.999 702.771 396.543 702.908C397.088 703.046 397.685 702.928 398.334 702.555ZM406.04 691.346C406.226 691.239 406.427 691.139 406.643 691.045C406.856 690.945 407.051 690.866 407.229 690.809L407.8 692.215C407.625 692.264 407.438 692.33 407.239 692.414C407.04 692.499 406.858 692.588 406.695 692.682C406.322 692.896 406.013 693.175 405.767 693.519C405.524 693.854 405.36 694.234 405.274 694.659C405.184 695.078 405.182 695.526 405.268 696.002C405.351 696.473 405.53 696.948 405.806 697.428L408.667 702.406L407.253 703.219L401.92 693.939L403.089 693.267L404.224 694.89L404.283 694.856C404.277 694.402 404.329 693.955 404.437 693.517C404.543 693.074 404.725 692.665 404.983 692.291C405.247 691.914 405.599 691.599 406.04 691.346ZM412.4 687.714C413.506 687.078 414.47 686.855 415.292 687.043C416.113 687.232 416.837 687.871 417.463 688.96L421.088 695.268L420.064 695.857L419.005 694.641L418.937 694.68C418.872 695.168 418.765 695.609 418.616 696.002C418.463 696.39 418.235 696.751 417.93 697.083C417.628 697.407 417.209 697.723 416.673 698.031C416.108 698.355 415.549 698.545 414.995 698.601C414.447 698.653 413.931 698.552 413.447 698.297C412.968 698.039 412.552 697.602 412.198 696.987C411.666 696.061 411.624 695.139 412.073 694.221C412.521 693.302 413.483 692.389 414.959 691.481L416.52 690.494L416.194 689.926C415.733 689.125 415.238 688.662 414.709 688.538C414.18 688.414 413.602 688.532 412.975 688.892C412.49 689.171 412.068 689.508 411.708 689.902C411.349 690.296 411.027 690.703 410.742 691.122L409.698 690.303C409.992 689.849 410.366 689.389 410.821 688.926C411.275 688.462 411.801 688.058 412.4 687.714ZM417.072 691.494L415.692 692.366C414.561 693.076 413.854 693.734 413.571 694.339C413.289 694.945 413.322 695.552 413.673 696.162C413.978 696.693 414.364 696.993 414.832 697.062C415.299 697.131 415.799 697.013 416.329 696.708C417.153 696.234 417.696 695.618 417.959 694.859C418.221 694.1 418.089 693.264 417.564 692.349L417.072 691.494ZM427.384 691.876C426.21 692.551 425.048 692.685 423.899 692.279C422.755 691.87 421.729 690.875 420.821 689.295C419.903 687.697 419.56 686.291 419.793 685.076C420.023 683.855 420.719 682.911 421.882 682.243C422.373 681.96 422.839 681.779 423.28 681.698C423.722 681.617 424.139 681.61 424.53 681.678C424.919 681.74 425.283 681.857 425.623 682.03L425.724 681.972C425.601 681.81 425.441 681.583 425.243 681.291C425.045 680.999 424.891 680.757 424.781 680.565L422.645 676.848L424.05 676.04L431.621 689.215L430.487 689.867L429.516 688.668L429.457 688.702C429.441 689.079 429.362 689.459 429.221 689.84C429.085 690.218 428.87 690.582 428.576 690.932C428.283 691.272 427.886 691.587 427.384 691.876ZM426.932 690.581C427.926 690.01 428.466 689.324 428.554 688.523C428.642 687.721 428.366 686.765 427.727 685.653L427.581 685.399C426.903 684.219 426.185 683.426 425.426 683.021C424.674 682.613 423.781 682.706 422.748 683.299C421.884 683.795 421.429 684.5 421.383 685.413C421.333 686.32 421.638 687.346 422.296 688.492C422.952 689.632 423.669 690.391 424.45 690.769C425.235 691.143 426.063 691.08 426.932 690.581ZM430.675 677.415L436.007 686.695L434.602 687.503L429.269 678.223L430.675 677.415ZM427.994 674.337C428.225 674.204 428.467 674.167 428.718 674.225C428.972 674.275 429.189 674.458 429.371 674.774C429.549 675.084 429.598 675.364 429.516 675.614C429.44 675.861 429.286 676.05 429.055 676.183C428.812 676.323 428.565 676.363 428.314 676.305C428.068 676.243 427.856 676.057 427.677 675.747C427.496 675.431 427.442 675.154 427.516 674.916C427.592 674.67 427.751 674.477 427.994 674.337ZM437.131 673.479C437.921 673.025 438.699 672.811 439.465 672.837C440.23 672.862 440.944 673.105 441.607 673.565C442.266 674.02 442.837 674.668 443.321 675.509L443.822 676.381L437.412 680.065C438.055 681.144 438.803 681.818 439.656 682.087C440.508 682.355 441.411 682.215 442.365 681.667C442.952 681.33 443.441 680.978 443.831 680.611C444.221 680.244 444.598 679.817 444.964 679.329L445.674 680.565C445.326 681.043 444.948 681.463 444.54 681.825C444.138 682.184 443.624 682.543 442.997 682.903C442.105 683.416 441.222 683.683 440.349 683.705C439.477 683.717 438.656 683.476 437.883 682.981C437.111 682.487 436.431 681.728 435.844 680.707C435.27 679.708 434.94 678.748 434.855 677.829C434.772 676.9 434.921 676.063 435.304 675.318C435.692 674.569 436.301 673.956 437.131 673.479ZM437.776 674.641C437.025 675.072 436.568 675.662 436.404 676.409C436.24 677.156 436.369 677.995 436.79 678.924L441.701 676.102C441.378 675.552 441.011 675.117 440.602 674.796C440.195 674.467 439.756 674.284 439.284 674.247C438.809 674.205 438.306 674.336 437.776 674.641ZM447.689 667.412C448.79 666.779 449.778 666.572 450.654 666.789C451.527 667.001 452.305 667.703 452.99 668.894L456.464 674.939L455.075 675.737L451.655 669.785C451.21 669.012 450.7 668.535 450.124 668.356C449.553 668.173 448.904 668.291 448.176 668.709C447.148 669.3 446.593 670.005 446.509 670.827C446.426 671.648 446.702 672.612 447.338 673.719L450.131 678.579L448.725 679.387L443.392 670.107L444.527 669.455L445.507 670.671L445.583 670.627C445.593 670.186 445.687 669.768 445.865 669.373C446.04 668.972 446.284 668.606 446.598 668.276C446.908 667.94 447.272 667.652 447.689 667.412ZM461.793 670.571C462.024 670.438 462.25 670.282 462.47 670.103C462.69 669.924 462.86 669.762 462.98 669.618L463.608 670.71C463.486 670.878 463.293 671.071 463.029 671.291C462.77 671.507 462.502 671.694 462.226 671.853C461.735 672.136 461.24 672.307 460.742 672.368C460.241 672.423 459.75 672.315 459.271 672.042C458.797 671.766 458.351 671.264 457.932 670.536L454.77 665.033L453.449 665.792L453.055 665.106L454.068 663.792L453.468 661.455L454.315 660.969L455.551 663.119L458.269 661.557L458.901 662.658L456.184 664.22L459.322 669.681C459.656 670.263 460.038 670.621 460.469 670.757C460.906 670.889 461.347 670.827 461.793 670.571ZM470.186 654.484C471.208 653.897 472.133 653.722 472.96 653.96C473.784 654.192 474.536 654.898 475.214 656.078L478.707 662.157L477.319 662.955L473.864 656.943C473.432 656.193 472.946 655.725 472.404 655.541C471.865 655.347 471.277 655.434 470.639 655.8C469.742 656.316 469.239 656.951 469.131 657.703C469.023 658.456 469.259 659.338 469.84 660.348L472.822 665.539L471.425 666.341L467.971 660.33C467.682 659.827 467.369 659.452 467.03 659.203C466.698 658.951 466.341 658.826 465.959 658.828C465.579 658.821 465.172 658.942 464.737 659.192C464.122 659.545 463.701 659.956 463.475 660.424C463.248 660.892 463.194 661.426 463.314 662.026C463.436 662.617 463.706 663.276 464.124 664.005L466.946 668.915L465.541 669.723L460.208 660.443L461.343 659.791L462.308 660.982L462.385 660.938C462.386 660.509 462.465 660.104 462.62 659.721C462.776 659.339 462.996 658.991 463.281 658.677C463.567 658.363 463.907 658.092 464.302 657.865C465.007 657.46 465.674 657.254 466.3 657.246C466.929 657.23 467.505 657.429 468.028 657.842L468.104 657.798C468.101 657.087 468.29 656.449 468.671 655.884C469.049 655.314 469.554 654.847 470.186 654.484ZM479.737 648.995C480.528 648.541 481.306 648.327 482.071 648.352C482.837 648.378 483.551 648.621 484.213 649.081C484.873 649.536 485.444 650.184 485.927 651.025L486.428 651.897L480.019 655.58C480.662 656.66 481.409 657.334 482.262 657.602C483.115 657.871 484.018 657.731 484.972 657.183C485.559 656.845 486.047 656.493 486.437 656.127C486.827 655.76 487.205 655.333 487.57 654.845L488.281 656.081C487.932 656.559 487.554 656.979 487.147 657.341C486.744 657.7 486.23 658.059 485.604 658.419C484.712 658.932 483.829 659.199 482.955 659.22C482.084 659.233 481.262 658.992 480.49 658.497C479.717 658.002 479.038 657.244 478.45 656.222C477.876 655.223 477.546 654.264 477.461 653.344C477.378 652.416 477.528 651.579 477.91 650.833C478.299 650.085 478.908 649.472 479.737 648.995ZM480.382 650.156C479.631 650.588 479.174 651.177 479.01 651.925C478.847 652.672 478.976 653.51 479.397 654.439L484.308 651.617C483.984 651.067 483.618 650.632 483.208 650.312C482.801 649.983 482.362 649.799 481.89 649.763C481.416 649.72 480.913 649.851 480.382 650.156ZM493.765 652.198C493.996 652.065 494.222 651.909 494.442 651.73C494.662 651.551 494.832 651.389 494.952 651.245L495.579 652.337C495.458 652.505 495.265 652.698 495.001 652.918C494.742 653.134 494.474 653.321 494.198 653.48C493.707 653.763 493.212 653.934 492.714 653.995C492.213 654.051 491.722 653.942 491.243 653.669C490.769 653.393 490.323 652.891 489.904 652.163L486.741 646.66L485.421 647.419L485.026 646.733L486.039 645.419L485.44 643.082L486.287 642.596L487.523 644.746L490.241 643.184L490.873 644.285L488.155 645.847L491.294 651.308C491.628 651.89 492.01 652.248 492.441 652.384C492.877 652.516 493.319 652.454 493.765 652.198ZM496.299 639.478C496.485 639.371 496.687 639.27 496.903 639.176C497.116 639.076 497.311 638.998 497.488 638.941L498.06 640.347C497.885 640.395 497.698 640.461 497.498 640.546C497.299 640.63 497.118 640.719 496.954 640.813C496.581 641.027 496.272 641.306 496.027 641.65C495.784 641.985 495.619 642.365 495.533 642.79C495.444 643.209 495.442 643.657 495.528 644.133C495.611 644.604 495.79 645.079 496.066 645.559L498.927 650.538L497.513 651.35L492.18 642.07L493.348 641.399L494.484 643.022L494.543 642.987C494.537 642.533 494.588 642.087 494.697 641.649C494.802 641.205 494.984 640.796 495.243 640.423C495.507 640.046 495.859 639.731 496.299 639.478ZM500.681 637.185L506.014 646.465L504.608 647.273L499.275 637.993L500.681 637.185ZM498 634.108C498.231 633.975 498.473 633.937 498.724 633.996C498.978 634.045 499.195 634.228 499.377 634.544C499.555 634.854 499.604 635.135 499.522 635.384C499.446 635.631 499.292 635.82 499.061 635.953C498.818 636.093 498.571 636.134 498.32 636.075C498.074 636.014 497.862 635.828 497.684 635.517C497.502 635.201 497.448 634.924 497.522 634.687C497.598 634.44 497.757 634.247 498 634.108ZM512.808 642.786C511.973 643.266 511.137 643.517 510.302 643.539C509.466 643.561 508.668 643.322 507.906 642.82C507.145 642.319 506.457 641.532 505.84 640.46C505.195 639.337 504.854 638.312 504.818 637.387C504.784 636.453 504.998 635.624 505.461 634.9C505.924 634.176 506.575 633.572 507.416 633.089C507.879 632.823 508.353 632.615 508.837 632.464C509.323 632.305 509.746 632.216 510.103 632.198L510.356 633.618C510.009 633.668 509.623 633.754 509.199 633.878C508.78 633.999 508.41 634.151 508.088 634.336C507.445 634.706 506.988 635.152 506.718 635.676C506.453 636.195 506.368 636.785 506.462 637.445C506.561 638.101 506.836 638.821 507.287 639.606C507.718 640.357 508.188 640.939 508.696 641.353C509.21 641.763 509.751 641.993 510.32 642.042C510.891 642.082 511.484 641.925 512.099 641.571C512.59 641.289 513.004 640.983 513.341 640.655C513.675 640.32 513.962 639.99 514.202 639.664L514.922 640.917C514.703 641.254 514.425 641.575 514.09 641.88C513.761 642.182 513.333 642.484 512.808 642.786ZM521.852 633.984C522.193 634.577 522.33 635.162 522.265 635.741C522.201 636.31 521.952 636.855 521.515 637.377C521.084 637.894 520.488 638.372 519.726 638.81C519.077 639.183 518.486 639.455 517.953 639.626C517.421 639.797 516.923 639.891 516.461 639.91L515.716 638.614C516.201 638.583 516.75 638.493 517.363 638.344C517.975 638.194 518.555 637.962 519.103 637.648C519.905 637.187 520.411 636.723 520.623 636.256C520.835 635.789 520.813 635.332 520.557 634.886C520.411 634.632 520.21 634.451 519.953 634.344C519.698 634.227 519.349 634.176 518.907 634.19C518.461 634.198 517.876 634.264 517.151 634.388C516.429 634.503 515.787 634.575 515.226 634.605C514.667 634.625 514.176 634.543 513.754 634.358C513.338 634.169 512.982 633.818 512.687 633.304C512.236 632.519 512.207 631.736 512.599 630.955C512.994 630.166 513.707 629.474 514.74 628.88C515.299 628.559 515.854 628.315 516.404 628.149C516.957 627.974 517.498 627.858 518.029 627.801L518.202 629.2C517.724 629.257 517.235 629.354 516.736 629.491C516.236 629.628 515.761 629.826 515.309 630.085C514.66 630.458 514.222 630.853 513.995 631.268C513.774 631.681 513.771 632.073 513.985 632.446C514.15 632.733 514.366 632.925 514.631 633.021C514.901 633.113 515.262 633.139 515.711 633.098C516.161 633.057 516.74 632.98 517.448 632.866C518.152 632.746 518.783 632.681 519.339 632.669C519.892 632.651 520.376 632.741 520.79 632.939C521.206 633.128 521.56 633.476 521.852 633.984ZM524.855 634.466C524.628 634.071 524.563 633.737 524.661 633.463C524.756 633.183 524.941 632.964 525.218 632.805C525.506 632.639 525.797 632.584 526.092 632.64C526.384 632.69 526.643 632.913 526.87 633.308C527.094 633.698 527.159 634.039 527.065 634.334C526.968 634.622 526.776 634.849 526.488 635.015C526.211 635.174 525.927 635.221 525.634 635.156C525.339 635.086 525.079 634.856 524.855 634.466ZM533.942 630.641C533.107 631.121 532.271 631.372 531.436 631.394C530.6 631.416 529.801 631.177 529.04 630.676C528.279 630.174 527.591 629.388 526.974 628.315C526.329 627.192 525.988 626.167 525.952 625.242C525.918 624.308 526.132 623.479 526.595 622.755C527.057 622.031 527.709 621.427 528.55 620.944C529.013 620.678 529.487 620.47 529.971 620.319C530.457 620.16 530.88 620.071 531.237 620.053L531.49 621.474C531.143 621.523 530.757 621.609 530.333 621.733C529.914 621.854 529.544 622.006 529.222 622.191C528.578 622.561 528.122 623.008 527.852 623.531C527.587 624.051 527.502 624.64 527.596 625.3C527.695 625.956 527.97 626.677 528.421 627.461C528.852 628.212 529.322 628.794 529.83 629.208C530.344 629.619 530.885 629.848 531.454 629.897C532.025 629.937 532.618 629.78 533.233 629.426C533.724 629.144 534.138 628.839 534.475 628.51C534.808 628.176 535.096 627.845 535.336 627.519L536.056 628.773C535.837 629.109 535.559 629.43 535.224 629.735C534.895 630.037 534.467 630.339 533.942 630.641ZM543.768 618.574C544.206 619.336 544.498 620.073 544.644 620.785C544.79 621.497 544.796 622.166 544.66 622.792C544.524 623.418 544.254 623.994 543.85 624.519C543.449 625.035 542.915 625.485 542.249 625.867C541.628 626.224 540.996 626.445 540.353 626.529C539.713 626.604 539.086 626.544 538.471 626.349C537.861 626.151 537.28 625.813 536.727 625.335C536.18 624.853 535.688 624.231 535.25 623.469C534.666 622.453 534.342 621.49 534.278 620.581C534.21 619.667 534.388 618.84 534.812 618.101C535.238 617.353 535.894 616.724 536.78 616.215C537.627 615.728 538.475 615.492 539.325 615.507C540.18 615.519 540.989 615.783 541.75 616.298C542.515 616.805 543.187 617.564 543.768 618.574ZM536.706 622.632C537.135 623.377 537.605 623.967 538.117 624.401C538.629 624.835 539.177 625.083 539.761 625.145C540.345 625.208 540.962 625.052 541.611 624.679C542.254 624.31 542.696 623.857 542.936 623.321C543.182 622.782 543.247 622.181 543.129 621.52C543.012 620.859 542.74 620.156 542.312 619.411C541.887 618.672 541.421 618.091 540.916 617.668C540.407 617.239 539.862 616.997 539.281 616.94C538.7 616.883 538.082 617.043 537.428 617.42C536.462 617.974 535.937 618.7 535.852 619.598C535.773 620.492 536.058 621.503 536.706 622.632ZM553.52 606.595C554.542 606.008 555.466 605.833 556.294 606.071C557.118 606.303 557.869 607.009 558.547 608.189L562.041 614.268L560.652 615.066L557.197 609.055C556.766 608.304 556.279 607.836 555.738 607.652C555.199 607.459 554.61 607.545 553.972 607.912C553.075 608.428 552.572 609.062 552.464 609.815C552.356 610.568 552.593 611.449 553.173 612.46L556.156 617.65L554.759 618.453L551.304 612.441C551.015 611.939 550.702 611.563 550.364 611.315C550.031 611.063 549.674 610.938 549.292 610.939C548.913 610.932 548.506 611.054 548.071 611.303C547.456 611.657 547.035 612.068 546.808 612.536C546.581 613.004 546.528 613.538 546.647 614.138C546.769 614.728 547.039 615.388 547.458 616.116L550.28 621.027L548.874 621.835L543.541 612.555L544.676 611.903L545.642 613.093L545.718 613.05C545.719 612.621 545.798 612.215 545.954 611.833C546.109 611.451 546.33 611.102 546.615 610.788C546.9 610.474 547.24 610.204 547.635 609.977C548.341 609.571 549.007 609.365 549.634 609.358C550.263 609.342 550.838 609.54 551.361 609.953L551.437 609.909C551.434 609.198 551.623 608.56 552.004 607.995C552.382 607.425 552.888 606.958 553.52 606.595Z" fill="#171717"/>
<defs>
<filter id="filter0_d_2_2" x="83.4688" y="212.82" width="520.5" height="123.586" filterUnits="userSpaceOnUse" color-interpolation-filters="sRGB">
<feFlood flood-opacity="0" result="BackgroundImageFix"/>
<feColorMatrix in="SourceAlpha" type="matrix" values="0 0 0 0 0 0 0 0 0 0 0 0 0 0 0 0 0 0 127 0" result="hardAlpha"/>
<feOffset dx="6" dy="6"/>
<feGaussianBlur stdDeviation="3"/>
<feComposite in2="hardAlpha" operator="out"/>
<feColorMatrix type="matrix" values="0 0 0 0 0 0 0 0 0 0 0 0 0 0 0 0 0 0 0.25 0"/>
<feBlend mode="normal" in2="BackgroundImageFix" result="effect1_dropShadow_2_2"/>
<feBlend mode="normal" in="SourceGraphic" in2="effect1_dropShadow_2_2" result="shape"/>
</filter>
<filter id="filter1_i_2_2" x="114.013" y="244.968" width="472.487" height="346.532" filterUnits="userSpaceOnUse" color-interpolation-filters="sRGB">
<feFlood flood-opacity="0" result="BackgroundImageFix"/>
<feBlend mode="normal" in="SourceGraphic" in2="BackgroundImageFix" result="shape"/>
<feColorMatrix in="SourceAlpha" type="matrix" values="0 0 0 0 0 0 0 0 0 0 0 0 0 0 0 0 0 0 127 0" result="hardAlpha"/>
<feOffset dx="48" dy="-60"/>
<feGaussianBlur stdDeviation="52.5"/>
<feComposite in2="hardAlpha" operator="arithmetic" k2="-1" k3="1"/>
<feColorMatrix type="matrix" values="0 0 0 0 0.211765 0 0 0 0 0.576471 0 0 0 0 0.937255 0 0 0 0.5 0"/>
<feBlend mode="normal" in2="shape" result="effect1_innerShadow_2_2"/>
</filter>
<linearGradient id="paint0_linear_2_2" x1="338" y1="1151" x2="337.625" y2="24.3506" gradientUnits="userSpaceOnUse">
<stop stop-color="#FFCF60"/>
<stop offset="1" stop-color="white"/>
</linearGradient>
</defs>
</svg>
